<?xml version="1.0" encoding="UTF-8"?>
<svg version="1.1" xmlns="http://www.w3.org/2000/svg" width="70" height="101">
<path d="M0 0 C23.1 0 46.2 0 70 0 C70 33.33 70 66.66 70 101 C46.9 101 23.8 101 0 101 C0 67.67 0 34.34 0 0 Z " fill="#FDFDFC" transform="translate(0,0)"/>
<path d="M0 0 C3.3 0 6.6 0 10 0 C10.495 4.455 10.495 4.455 11 9 C13.97 9.495 13.97 9.495 17 10 C17 33.1 17 56.2 17 80 C-6.1 80 -29.2 80 -53 80 C-53 63.83 -53 47.66 -53 31 C-50.36 31 -47.72 31 -45 31 C-45.3196875 32.00675781 -45.639375 33.01351562 -45.96875 34.05078125 C-48.38484602 42.57780096 -48.21035181 51.47635285 -44.5 59.5625 C-41.51599116 64.77400839 -38.27030164 68.14441831 -33 71 C-32.38382813 71.33644531 -31.76765625 71.67289062 -31.1328125 72.01953125 C-24.34627704 75.1030401 -16.87711157 75.05611393 -9.7734375 73.12109375 C-1.15274039 69.88031059 3.33879495 65.79587005 7.25 57.5625 C8.94579029 53.45020854 10.05271813 49.34170857 11 45 C6.52300912 47.2602284 3.02927847 49.13386758 1 53.875 C-1.54314055 59.81649652 -6.20244614 63.63098428 -11.9375 66.4375 C-18.62293643 67.6654373 -24.09942183 67.73857394 -30.14453125 64.3359375 C-34.95652569 60.8713015 -38.14760201 56.6245539 -40 51 C-40.91033027 43.91847733 -40.29071614 37.83165445 -36 32 C-31.19749915 27.19749915 -25.84179757 23.83084164 -18.95703125 23.77734375 C-17.57500979 23.81526108 -16.1933327 23.8687825 -14.8125 23.9375 C-8.62319007 24.31540074 -8.62319007 24.31540074 -3 22 C-9.0605925 18.63438409 -14.03949747 16.38669459 -21 16 C-21 14.02 -21 12.04 -21 10 C-17.68751813 9.97111854 -14.37506833 9.95324201 -11.0625 9.9375 C-9.64420898 9.92493164 -9.64420898 9.92493164 -8.19726562 9.91210938 C-6.84858398 9.90727539 -6.84858398 9.90727539 -5.47265625 9.90234375 C-4.64000244 9.89710693 -3.80734863 9.89187012 -2.94946289 9.88647461 C-1 10 -1 10 0 11 C0.14257189 14.33618231 0.04228157 17.65975606 0 21 C3.3 21 6.6 21 10 21 C9.67 17.7 9.34 14.4 9 11 C6.03 10.67 3.06 10.34 0 10 C0 6.7 0 3.4 0 0 Z " fill="#F5F6F7" transform="translate(53,21)"/>
<path d="M0 0 C0.91007812 0.10183594 1.82015625 0.20367187 2.7578125 0.30859375 C3.45648438 0.39238281 4.15515625 0.47617187 4.875 0.5625 C4.875 1.5525 4.875 2.5425 4.875 3.5625 C5.865 3.8925 6.855 4.2225 7.875 4.5625 C10.16384278 7.81506605 10.26432011 10.66929887 9.875 14.5625 C8.375 17.9375 8.375 17.9375 6.875 20.5625 C6.215 20.5625 5.555 20.5625 4.875 20.5625 C4.875 21.2225 4.875 21.8825 4.875 22.5625 C3.225 22.8925 1.575 23.2225 -0.125 23.5625 C1.195 23.8925 2.515 24.2225 3.875 24.5625 C0.37640459 32.92212462 -3.76848421 38.94122632 -12.0625 43 C-18.74793643 44.2279373 -24.22442183 44.30107394 -30.26953125 40.8984375 C-35.08152569 37.4338015 -38.27260201 33.1870539 -40.125 27.5625 C-41.03533027 20.48097733 -40.41571614 14.39415445 -36.125 8.5625 C-31.28532939 3.72282939 -25.9307214 0.42080267 -19.01171875 0.3046875 C-17.61157461 0.33344863 -16.21166859 0.37785055 -14.8125 0.4375 C-9.60953789 0.59701372 -5.07279632 -0.58532265 0 0 Z " fill="#EEEEEE" transform="translate(53.125,44.4375)"/>
<path d="M0 0 C0.65484375 0.3609375 1.3096875 0.721875 1.984375 1.09375 C0.35025057 2.80215281 -0.88468594 4.02828047 -3.015625 5.09375 C-4.80206372 5.05201078 -6.58861807 5.00542839 -8.3737793 4.92602539 C-16.23168648 4.62417714 -22.57937714 5.03309237 -29.015625 10.09375 C-34.23160364 15.63724358 -35.39236111 20.85479785 -35.28515625 28.2421875 C-34.78252629 33.55986676 -33.00550112 37.2600211 -29.07421875 40.8828125 C-23.13871104 45.49567485 -18.47655141 46.74779225 -11.015625 46.09375 C-5.01393047 44.81077907 -0.67568554 42.0216026 2.984375 37.09375 C3.68549076 35.73599224 4.35224065 34.35996372 4.984375 32.96875 C6.8890311 28.79131098 8.93427184 27.2068473 12.984375 25.09375 C13.644375 25.09375 14.304375 25.09375 14.984375 25.09375 C14.32660661 34.13806537 11.42452426 41.61011539 5.15234375 48.296875 C-1.54372555 53.84677028 -9.55061609 55.92661644 -18.12890625 55.51171875 C-25.86337943 54.39184239 -32.97082609 51.1696027 -38.015625 45.09375 C-43.96041124 36.56542029 -45.50385619 28.3535256 -44.015625 18.09375 C-41.57917428 10.07910948 -36.60946922 3.9531096 -29.54296875 -0.4453125 C-19.12895699 -5.80965237 -10.30866747 -5.24169532 0 0 Z " fill="#2B3868" transform="translate(49.015625,40.90625)"/>
<path d="M0 0 C4 2 4 2 5.3125 3.75 C6.45447716 7.48737978 5.61217057 10.68074869 3.9921875 14.171875 C2.68577897 17.89565366 2.54311933 21.39321821 2.375 25.3125 C2.33632813 26.05306641 2.29765625 26.79363281 2.2578125 27.55664062 C2.16418295 29.37071309 2.08103149 31.18532116 2 33 C1.27554687 33.24234375 0.55109375 33.4846875 -0.1953125 33.734375 C-7.432695 36.24333426 -13.15212032 38.45595461 -17.8125 44.75 C-19.65449008 47.0537156 -20.44569776 47.8953288 -23.37890625 48.44921875 C-25.875 48.4375 -25.875 48.4375 -30 48 C-30 44.7 -30 41.4 -30 38 C-28.35 38 -26.7 38 -25 38 C-24.67 34.37 -24.34 30.74 -24 27 C-25.32 27 -26.64 27 -28 27 C-26.25 22.125 -26.25 22.125 -24 21 C-23.27840576 19.35636866 -22.60648579 17.68949614 -22 16 C-20.35 16.33 -18.7 16.66 -17 17 C-17.26041667 18.98567708 -17.52083333 20.97135417 -17.78125 22.95703125 C-18.053233 25.15471706 -18.053233 25.15471706 -18 28 C-15.03 16.615 -15.03 16.615 -12 5 C-7 6 -7 6 -4 8 C-2.68 5.36 -1.36 2.72 0 0 Z " fill="#EDECED" transform="translate(30,4)"/>
<path d="M0 0 C2.33294775 -0.04241723 4.66702567 -0.04092937 7 0 C8 1 8 1 8.09765625 3.06640625 C8.06510417 5.37760417 8.03255208 7.68880208 8 10 C11.63 10 15.26 10 19 10 C19 6.7 19 3.4 19 0 C22.3 0 25.6 0 29 0 C29.33 2.97 29.66 5.94 30 9 C31.093125 8.979375 32.18625 8.95875 33.3125 8.9375 C37 9 37 9 40 10 C40.4375 12.0625 40.4375 12.0625 40 15 C36.18493277 20.33176063 31.40490281 23.66663733 25 25 C18.50733553 25.91125115 13.34981825 24.85186914 8 21 C3.70923722 16.98513993 0.17782054 12.75328347 -0.109375 6.69140625 C-0.12332354 4.45615226 -0.08758245 2.23335243 0 0 Z " fill="#FBFCFD" transform="translate(13,63)"/>
<path d="M0 0 C3.8359375 1.78125 3.8359375 1.78125 5.3125 3.75 C7.60727387 11.26016902 1.70214618 21.59861708 -1.77050781 28.14501953 C-4.06698618 31.60980163 -6.88712351 32.72014113 -10.80078125 33.66015625 C-11.52652344 33.77230469 -12.25226562 33.88445313 -13 34 C-14.485 34.495 -14.485 34.495 -16 35 C-14.48370518 30.06430563 -12.47167151 25.51940638 -10.25 20.875 C-9.89873047 20.13451416 -9.54746094 19.39402832 -9.18554688 18.63110352 C-6.20800153 12.37812319 -3.14005949 6.1730715 0 0 Z " fill="#FAAF15" transform="translate(30,4)"/>
<path d="M0 0 C2.43119623 1.87015094 3.64069173 3.28138345 5 6 C5.43023798 9.87214182 5.31669086 11.52496371 3.125 14.8125 C0.42055063 17.59649199 -0.42266704 17.93464155 -4.3125 18.375 C-8 18 -8 18 -10.9375 16 C-13.23047397 12.66476514 -13.76173735 10.89992945 -13.4765625 6.9375 C-11.70799246 -0.25275195 -6.22756006 -0.88965144 0 0 Z " fill="#FAB016" transform="translate(58,47)"/>
<path d="M0 0 C5.61 0 11.22 0 17 0 C17 6.93 17 13.86 17 21 C15.02 21 13.04 21 11 21 C10 20 10 20 9.90234375 17.71484375 C9.95117188 13.85742188 9.95117188 13.85742188 10 10 C6.7 10 3.4 10 0 10 C0 6.7 0 3.4 0 0 Z " fill="#FEFEFE" transform="translate(53,0)"/>
<path d="M0 0 C3.63 0 7.26 0 11 0 C11 3.3 11 6.6 11 10 C13.1965625 9.9690625 13.1965625 9.9690625 15.4375 9.9375 C16.95832518 9.91607993 18.48071962 9.92820036 20 10 C21 11 21 11 21.09765625 13.28515625 C21.06510417 15.85677083 21.03255208 18.42838542 21 21 C17.7 21 14.4 21 11 21 C10.67 17.7 10.34 14.4 10 11 C6.7 10.67 3.4 10.34 0 10 C0 6.7 0 3.4 0 0 Z " fill="#EEEFEE" transform="translate(42,21)"/>
<path d="M0 0 C1.65 0.33 3.3 0.66 5 1 C6.49458746 5.67391345 5.39753893 8.08685034 3.25390625 12.39453125 C2.96394272 12.98674973 2.67397919 13.5789682 2.37522888 14.18913269 C1.45049774 16.07026587 0.5069317 17.94119287 -0.4375 19.8125 C-1.06962791 21.08986782 -1.70050184 22.36785701 -2.33007812 23.64648438 C-3.87225921 26.77165155 -5.43147009 29.88795813 -7 33 C-7.66 32.67 -8.32 32.34 -9 32 C-9.66 33.32 -10.32 34.64 -11 36 C-11.10094304 27.58807963 -11.10102642 19.35600408 -10 11 C-8.35 11.33 -6.7 11.66 -5 12 C-5.26041667 13.98567708 -5.52083333 15.97135417 -5.78125 17.95703125 C-6.053233 20.15471706 -6.053233 20.15471706 -6 23 C-3.03 11.615 -3.03 11.615 0 0 Z " fill="#ECBA51" transform="translate(18,9)"/>
<path d="M0 0 C3.3 0 6.6 0 10 0 C10.33 2.97 10.66 5.94 11 9 C12.093125 8.979375 13.18625 8.95875 14.3125 8.9375 C18 9 18 9 21 10 C21.47676838 12.70168747 21.42826678 14.38427638 19.83984375 16.66796875 C17.3103887 19.39149963 15.8909357 20.883791 12.125 21.375 C11.42375 21.25125 10.7225 21.1275 10 21 C8.62567543 17.18243176 9.32024961 13.92744671 10 10 C6.7 10 3.4 10 0 10 C0 6.7 0 3.4 0 0 Z " fill="#FCFDFD" transform="translate(32,63)"/>
<path d="M0 0 C3.3 0 6.6 0 10 0 C10 3.63 10 7.26 10 11 C11.32 11.33 12.64 11.66 14 12 C8.22310754 14.5208258 3.32560058 15.90864981 -3 15 C-6.5625 13.5 -6.5625 13.5 -9 12 C-9 11.67 -9 11.34 -9 11 C-6.03 11 -3.06 11 0 11 C0 7.37 0 3.74 0 0 Z " fill="#F0F1F2" transform="translate(32,73)"/>
<path d="M0 0 C2.01822917 0.06510417 4.03645833 0.13020833 6.0546875 0.1953125 C6.3846875 3.4953125 6.7146875 6.7953125 7.0546875 10.1953125 C10.0246875 10.6903125 10.0246875 10.6903125 13.0546875 11.1953125 C13.0546875 14.4953125 13.0546875 17.7953125 13.0546875 21.1953125 C11.05514004 21.23785606 9.05427114 21.23612033 7.0546875 21.1953125 C6.0546875 20.1953125 6.0546875 20.1953125 5.95703125 18.12890625 C6.00585938 14.66210938 6.00585938 14.66210938 6.0546875 11.1953125 C2.7546875 11.1953125 -0.5453125 11.1953125 -3.9453125 11.1953125 C-4.140625 4.359375 -4.140625 4.359375 -3.9453125 2.1953125 C-1.9453125 0.1953125 -1.9453125 0.1953125 0 0 Z " fill="#EFEFEF" transform="translate(56.9453125,9.8046875)"/>
<path d="M0 0 C3.3 0 6.6 0 10 0 C10.33 2.97 10.66 5.94 11 9 C13.97 9.495 13.97 9.495 17 10 C16.67 13.63 16.34 17.26 16 21 C14.02 21 12.04 21 10 21 C9.67 17.7 9.34 14.4 9 11 C6.03 10.67 3.06 10.34 0 10 C0 6.7 0 3.4 0 0 Z " fill="#FEFDFD" transform="translate(53,21)"/>
<path d="M0 0 C0.66 0.33 1.32 0.66 2 1 C0.32067048 6.8100941 -2.39208392 12.00868579 -5.125 17.375 C-5.59292969 18.30183594 -6.06085937 19.22867187 -6.54296875 20.18359375 C-7.69169056 22.45759406 -8.84411881 24.72963282 -10 27 C-9.31292969 26.6390625 -8.62585938 26.278125 -7.91796875 25.90625 C-7.01691406 25.4421875 -6.11585937 24.978125 -5.1875 24.5 C-4.29417969 24.0359375 -3.40085937 23.571875 -2.48046875 23.09375 C0 22 0 22 3 22 C3.103125 21.29875 3.20625 20.5975 3.3125 19.875 C4.09359003 16.60862353 5.42058743 13.9528148 7 11 C7.33 11 7.66 11 8 11 C8 15.62 8 20.24 8 25 C5.29817708 25.9765625 2.59635417 26.953125 -0.10546875 27.9296875 C-1.98436925 28.62444963 -3.84734254 29.36455435 -5.6875 30.15625 C-8.50947648 31.18589007 -10.15275987 30.81349718 -13 30 C-11.7023449 25.91635886 -10.1962487 22.05235184 -8.3984375 18.1640625 C-7.66367187 16.56884766 -7.66367187 16.56884766 -6.9140625 14.94140625 C-6.40617187 13.84699219 -5.89828125 12.75257812 -5.375 11.625 C-4.859375 10.50738281 -4.34375 9.38976562 -3.8125 8.23828125 C-2.54446772 5.49087798 -1.2735532 2.7448473 0 0 Z " fill="#F7EAC3" transform="translate(24,12)"/>
<path d="M0 0 C0.66 0 1.32 0 2 0 C2.99 0.33 3.98 0.66 5 1 C3 4 3 4 0.8359375 4.51171875 C0.02382813 4.56972656 -0.78828125 4.62773438 -1.625 4.6875 C-2.85089844 4.78611328 -2.85089844 4.78611328 -4.1015625 4.88671875 C-4.72804688 4.92410156 -5.35453125 4.96148437 -6 5 C-6 5.66 -6 6.32 -6 7 C-7.65 7 -9.3 7 -11 7 C-11 7.66 -11 8.32 -11 9 C-11.66 9 -12.32 9 -13 9 C-13 9.66 -13 10.32 -13 11 C-13.66 11 -14.32 11 -15 11 C-15.66 12.32 -16.32 13.64 -17 15 C-19.86724686 14.42655063 -20.8614515 14.1385485 -23 12 C-16.25363758 3.55166773 -11.1814656 -0.81982233 0 0 Z " fill="#243267" transform="translate(32,39)"/>
<path d="M0 0 C0.66 0 1.32 0 2 0 C2.0825 1.2375 2.165 2.475 2.25 3.75 C2.63285006 6.66793828 2.98224262 7.97268095 4.625 10.5 C7.8877899 12.56070941 10.2103488 12.34451375 14 12 C14.99 11.67 15.98 11.34 17 11 C17 11.66 17 12.32 17 13 C16.34 13 15.68 13 15 13 C15 13.66 15 14.32 15 15 C13.35 15.33 11.7 15.66 10 16 C11.32 16.33 12.64 16.66 14 17 C13.01 18.98 12.02 20.96 11 23 C10.67 22.34 10.34 21.68 10 21 C9.28972656 21.01160156 8.57945313 21.02320312 7.84765625 21.03515625 C6.92855469 21.04417969 6.00945313 21.05320312 5.0625 21.0625 C4.14597656 21.07410156 3.22945312 21.08570312 2.28515625 21.09765625 C0 21 0 21 -1 20 C-1.07179964 18.48071962 -1.08392007 16.95832518 -1.0625 15.4375 C-1.05347656 14.61121094 -1.04445312 13.78492187 -1.03515625 12.93359375 C-1.02355469 12.29550781 -1.01195312 11.65742187 -1 11 C-0.01 10.67 0.98 10.34 2 10 C1.34 9.34 0.68 8.68 0 8 C-0.26991906 5.31160615 -0.08737357 2.70858064 0 0 Z " fill="#F3EFE2" transform="translate(43,52)"/>
<path d="M0 0 C3.86355776 1.33918005 7.42191783 3.02782873 11 5 C7.24235206 8.92845012 7.24235206 8.92845012 4.02880859 9.11352539 C3.24328613 9.10828857 2.45776367 9.10305176 1.6484375 9.09765625 C0.79765625 9.09443359 -0.053125 9.09121094 -0.9296875 9.08789062 C-1.81914063 9.07951172 -2.70859375 9.07113281 -3.625 9.0625 C-4.97078125 9.05573242 -4.97078125 9.05573242 -6.34375 9.04882812 C-8.56256648 9.03702591 -10.78125018 9.02056155 -13 9 C-10.6875 6.9375 -10.6875 6.9375 -8 5 C-7.01 5.33 -6.02 5.66 -5 6 C-4.67 5.01 -4.34 4.02 -4 3 C-4.66 2.67 -5.32 2.34 -6 2 C-6.33 2.66 -6.66 3.32 -7 4 C-7.33 3.67 -7.66 3.34 -8 3 C-10.32817964 2.63239269 -12.6618385 2.29758419 -15 2 C-10.28182316 -1.14545123 -5.52012105 -0.67366406 0 0 Z " fill="#263365" transform="translate(40,37)"/>
<path d="M0 0 C3.96 0.33 7.92 0.66 12 1 C12 4.63 12 8.26 12 12 C8.37 12 4.74 12 1 12 C0.77213542 9.98177083 0.54427083 7.96354167 0.31640625 5.9453125 C0.08707039 3.92595684 0.08707039 3.92595684 -1 2 C-0.67 1.34 -0.34 0.68 0 0 Z " fill="#FDFDFD" transform="translate(20,51)"/>
<path d="M0 0 C3.63 0 7.26 0 11 0 C11 3.63 11 7.26 11 11 C7.37 11 3.74 11 0 11 C0 7.37 0 3.74 0 0 Z " fill="#FDFDFD" transform="translate(21,73)"/>
<path d="M0 0 C3.63 0 7.26 0 11 0 C11 3.3 11 6.6 11 10 C7.37 10 3.74 10 0 10 C0 6.7 0 3.4 0 0 Z " fill="#EFEFEF" transform="translate(0,0)"/>
<path d="M0 0 C3.63 0 7.26 0 11 0 C11 0.99 11 1.98 11 3 C11.99 3.33 12.98 3.66 14 4 C13.67 4.99 13.34 5.98 13 7 C11.68 6.34 10.36 5.68 9 5 C7.68 7.64 6.36 10.28 5 13 C2.36 11.68 -0.28 10.36 -3 9 C-2.01 8.67 -1.02 8.34 0 8 C0 5.36 0 2.72 0 0 Z " fill="#F4EEE1" transform="translate(21,0)"/>
<path d="M0 0 C3.63 0 7.26 0 11 0 C11.09765625 6.93359375 11.09765625 6.93359375 11 9 C10 10 10 10 7.96875 10.1328125 C7.1540625 10.13023438 6.339375 10.12765625 5.5 10.125 C4.6853125 10.12757812 3.870625 10.13015625 3.03125 10.1328125 C1 10 1 10 0 9 C-0.14193337 5.99668982 -0.04236378 3.00782866 0 0 Z " fill="#EFEEEE" transform="translate(42,0)"/>
<path d="M0 0 C0 3.33333333 0 6.66666667 0 10 C-3.63 10 -7.26 10 -11 10 C-11 6.7 -11 3.4 -11 0 C-2.25 -1.125 -2.25 -1.125 0 0 Z " fill="#EDEDEF" transform="translate(11,84)"/>
<path d="M0 0 C-0.33 0.66 -0.66 1.32 -1 2 C-3.64 2 -6.28 2 -9 2 C-9 2.66 -9 3.32 -9 4 C-9.66 4 -10.32 4 -11 4 C-10.85831863 5.43791516 -10.71148957 6.8753237 -10.5625 8.3125 C-10.48128906 9.11300781 -10.40007813 9.91351563 -10.31640625 10.73828125 C-10.04734307 13.16087179 -10.04734307 13.16087179 -9 16 C-6.03 16 -3.06 16 0 16 C-0.185625 15.2575 -0.37125 14.515 -0.5625 13.75 C-0.99203108 11.05009037 -0.85122974 9.55368923 0 7 C0.99 7 1.98 7 3 7 C2.34 5.02 1.68 3.04 1 1 C3.69773614 3.58044326 4.88905523 5.00149703 5.3125 8.8125 C4.92835642 12.7307645 3.70743683 14.21293267 1 17 C-2.13871188 18.56935594 -4.53855822 18.35201103 -8 18 C-10.91963173 16.01216563 -12.61102978 14.5685303 -13.48046875 11.0625 C-13.75539772 7.13918934 -13.21963243 5.32944864 -11 2 C-6.97020535 -0.68652977 -4.76065969 -0.40344574 0 0 Z " fill="#EBB43F" transform="translate(58,47)"/>
<path d="M0 0 C0.66 0 1.32 0 2 0 C2 0.99 2 1.98 2 3 C3.65 3 5.3 3 7 3 C7 6.3 7 9.6 7 13 C4.29120665 14.35439668 1.99066732 14.06501451 -1 14 C-1 14.66 -1 15.32 -1 16 C-1.66 16 -2.32 16 -3 16 C-2.7834375 15.43152344 -2.566875 14.86304688 -2.34375 14.27734375 C-0.54018042 9.2757781 0.3389604 5.31037964 0 0 Z " fill="#F4EDE2" transform="translate(35,7)"/>
<path d="M0 0 C1 2 1 2 0.57421875 4.0234375 C-0.84123472 7.77719517 -1.8721292 10.31811733 -5.390625 12.4453125 C-7.90666553 13.43848639 -10.39658013 14.26982548 -13 15 C-13.99 15.33 -14.98 15.66 -16 16 C-14.50829734 11.0276578 -12.39542583 6.58154261 -10 2 C-9.67 2 -9.34 2 -9 2 C-9 3.98 -9 5.96 -9 8 C-5.88667752 7.33131686 -5.88667752 7.33131686 -4.8125 4.9375 C-4.544375 4.298125 -4.27625 3.65875 -4 3 C-3.01 3 -2.02 3 -1 3 C-0.67 2.01 -0.34 1.02 0 0 Z " fill="#F3B129" transform="translate(30,23)"/>
<path d="M0 0 C1.65 0.33 3.3 0.66 5 1 C5.83409129 3.89117534 6.17367744 5.51544788 5.14453125 8.38671875 C4.70496094 9.14597656 4.26539063 9.90523437 3.8125 10.6875 C3.17248047 11.83798828 3.17248047 11.83798828 2.51953125 13.01171875 C0.85578222 15.18870655 -0.48247785 15.99191297 -3 17 C-2.68985608 14.91631462 -2.3767948 12.83306332 -2.0625 10.75 C-1.88847656 9.58984375 -1.71445312 8.4296875 -1.53515625 7.234375 C-1.1272264 4.76893039 -0.66098697 2.40575438 0 0 Z " fill="#F1B22C" transform="translate(18,9)"/>
<path d="M0 0 C3.3 0 6.6 0 10 0 C10 1.98 10 3.96 10 6 C12.31 6 14.62 6 17 6 C17 6.33 17 6.66 17 7 C11.06 7 5.12 7 -1 7 C-0.67 4.69 -0.34 2.38 0 0 Z " fill="#F0F0EF" transform="translate(53,94)"/>
<path d="M0 0 C0.04254356 1.99954746 0.04080783 4.00041636 0 6 C-1 7 -1 7 -3.28515625 7.09765625 C-4.65994141 7.08025391 -4.65994141 7.08025391 -6.0625 7.0625 C-6.98160156 7.05347656 -7.90070312 7.04445313 -8.84765625 7.03515625 C-9.55792969 7.02355469 -10.26820312 7.01195313 -11 7 C-11 4.69 -11 2.38 -11 0 C-3.375 -1.125 -3.375 -1.125 0 0 Z " fill="#FCFCFB" transform="translate(11,94)"/>
<path d="M0 0 C2.31 0 4.62 0 7 0 C7 3.63 7 7.26 7 11 C4.69 11 2.38 11 0 11 C0 7.37 0 3.74 0 0 Z " fill="#FEFEFE" transform="translate(63,73)"/>
<path d="M0 0 C1.4540625 0.0309375 1.4540625 0.0309375 2.9375 0.0625 C2.9375 3.6925 2.9375 7.3225 2.9375 11.0625 C0.93795254 11.10504356 -1.06291636 11.10330783 -3.0625 11.0625 C-4.0625 10.0625 -4.0625 10.0625 -4.1953125 8.03125 C-4.19273438 7.2165625 -4.19015625 6.401875 -4.1875 5.5625 C-4.19007812 4.7478125 -4.19265625 3.933125 -4.1953125 3.09375 C-3.9772303 -0.2416248 -3.415854 0.06971131 0 0 Z " fill="#FEFEFE" transform="translate(67.0625,9.9375)"/>
<path d="M0 0 C0.33 0 0.66 0 1 0 C1 4.95 1 9.9 1 15 C-0.98 15 -2.96 15 -5 15 C-6 14 -6 14 -6.09765625 11.93359375 C-6.08605469 11.10988281 -6.07445312 10.28617188 -6.0625 9.4375 C-6.05347656 8.61121094 -6.04445312 7.78492188 -6.03515625 6.93359375 C-6.02355469 6.29550781 -6.01195312 5.65742187 -6 5 C-4.02 5 -2.04 5 0 5 C0 3.35 0 1.7 0 0 Z " fill="#E9EAEA" transform="translate(69,37)"/>
<path d="M0 0 C0.04254356 1.99954746 0.04080783 4.00041636 0 6 C-1 7 -1 7 -3.28515625 7.09765625 C-4.65994141 7.08025391 -4.65994141 7.08025391 -6.0625 7.0625 C-6.98160156 7.05347656 -7.90070312 7.04445313 -8.84765625 7.03515625 C-9.55792969 7.02355469 -10.26820312 7.01195313 -11 7 C-10.25 2.25 -10.25 2.25 -8 0 C-2.51428571 -1.25714286 -2.51428571 -1.25714286 0 0 Z " fill="#FCFCFC" transform="translate(53,94)"/>
<path d="M0 0 C3.8359375 1.78125 3.8359375 1.78125 5.3125 3.75 C6.96607375 9.16169592 4.2343069 14.14281108 2 19 C0.75748267 15.27244802 1.40161053 12.85628772 2 9 C2.03545297 7.33371045 2.05048188 5.66590197 2 4 C1.01 4.495 1.01 4.495 0 5 C-0.65213292 7.02463255 -0.65213292 7.02463255 -1 9 C-1.66 9 -2.32 9 -3 9 C-3.144375 9.5775 -3.28875 10.155 -3.4375 10.75 C-3.95833333 12.83333333 -4.47916667 14.91666667 -5 17 C-5.66 17 -6.32 17 -7 17 C-5.1668733 11.00067626 -2.92678249 5.55079437 0 0 Z " fill="#EEB63D" transform="translate(30,4)"/>
<path d="M0 0 C2.31 0 4.62 0 7 0 C7 3.3 7 6.6 7 10 C5.00045254 10.04254356 2.99958364 10.04080783 1 10 C0 9 0 9 -0.09765625 6.93359375 C-0.08605469 6.10988281 -0.07445312 5.28617187 -0.0625 4.4375 C-0.05347656 3.61121094 -0.04445312 2.78492187 -0.03515625 1.93359375 C-0.02355469 1.29550781 -0.01195312 0.65742187 0 0 Z " fill="#EEEEEF" transform="translate(63,84)"/>
<path d="M0 0 C2.64 0 5.28 0 8 0 C7.01 3.63 6.02 7.26 5 11 C3.35 11 1.7 11 0 11 C0 7.37 0 3.74 0 0 Z " fill="#F9FBFB" transform="translate(0,52)"/>
<path d="M0 0 C2.31 0 4.62 0 7 0 C7 3.3 7 6.6 7 10 C5.00045254 10.04254356 2.99958364 10.04080783 1 10 C0 9 0 9 -0.09765625 6.93359375 C-0.08605469 6.10988281 -0.07445312 5.28617187 -0.0625 4.4375 C-0.05347656 3.61121094 -0.04445312 2.78492188 -0.03515625 1.93359375 C-0.02355469 1.29550781 -0.01195312 0.65742188 0 0 Z " fill="#EEEEEE" transform="translate(63,0)"/>
<path d="M0 0 C-0.66 0.66 -1.32 1.32 -2 2 C-2.33 3.32 -2.66 4.64 -3 6 C-9.27 6 -15.54 6 -22 6 C-22 5.67 -22 5.34 -22 5 C-19.03 5 -16.06 5 -13 5 C-13 3.68 -13 2.36 -13 1 C-11.20994059 0.63779734 -9.41787943 0.28547531 -7.625 -0.0625 C-6.12839844 -0.35833984 -6.12839844 -0.35833984 -4.6015625 -0.66015625 C-2 -1 -2 -1 0 0 Z " fill="#ECEDF0" transform="translate(45,95)"/>
<path d="M0 0 C2.42333886 4.29502335 2.57055483 8.1329547 3 13 C0.03 12.67 -2.94 12.34 -6 12 C-4.81819916 6.97734643 -3.55007718 3.9050849 0 0 Z " fill="#E8E9ED" transform="translate(19,51)"/>
<path d="M0 0 C1.98 0 3.96 0 6 0 C6.0270043 1.45823212 6.04639787 2.91660675 6.0625 4.375 C6.07410156 5.18710937 6.08570313 5.99921875 6.09765625 6.8359375 C6 9 6 9 5 11 C3.35 11 1.7 11 0 11 C0 7.37 0 3.74 0 0 Z " fill="#FDFDFB" transform="translate(0,31)"/>
<path d="M0 0 C0.33 0 0.66 0 1 0 C1 6.6 1 13.2 1 20 C1.66 19.34 2.32 18.68 3 18 C3.93423645 21.01031744 4.04449911 21.86650268 3 25 C2.34 25 1.68 25 1 25 C1 25.66 1 26.32 1 27 C0.34 27 -0.32 27 -1 27 C-1 21.39 -1 15.78 -1 10 C-2.32 10 -3.64 10 -5 10 C-3.25 5.125 -3.25 5.125 -1 4 C-0.34786708 1.97536745 -0.34786708 1.97536745 0 0 Z " fill="#F7F1D3" transform="translate(7,21)"/>
<path d="M0 0 C0 0.33 0 0.66 0 1 C-1.98 1 -3.96 1 -6 1 C-6 2.98 -6 4.96 -6 7 C-7.62463842 7.05395478 -9.24978541 7.09277195 -10.875 7.125 C-11.77992187 7.14820313 -12.68484375 7.17140625 -13.6171875 7.1953125 C-16 7 -16 7 -18 5 C-11.75838097 1.41874318 -7.24579719 -0.67090715 0 0 Z " fill="#DFE2EB" transform="translate(38,45)"/>
<path d="M0 0 C1.65 0 3.3 0 5 0 C5 3.63 5 7.26 5 11 C2.69 11 0.38 11 -2 11 C-2 10.01 -2 9.02 -2 8 C-1.34 8 -0.68 8 0 8 C0 5.36 0 2.72 0 0 Z " fill="#FEFEFE" transform="translate(65,52)"/>
<path d="M0 0 C2.475 0.495 2.475 0.495 5 1 C4.45018084 7.04801071 3.09570426 12.30601106 1 18 C0.67 18 0.34 18 0 18 C0 12.06 0 6.12 0 0 Z " fill="#EDB332" transform="translate(8,20)"/>
<path d="M0 0 C1.47906892 -0.02689216 2.95827483 -0.04634621 4.4375 -0.0625 C5.26121094 -0.07410156 6.08492187 -0.08570313 6.93359375 -0.09765625 C9 0 9 0 10 1 C10 2.65 10 4.3 10 6 C6.7 6 3.4 6 0 6 C0 4.02 0 2.04 0 0 Z " fill="#FCFEFD" transform="translate(32,46)"/>
<path d="M0 0 C2.97 0 5.94 0 9 0 C9.33 1.32 9.66 2.64 10 4 C9.01 5.485 9.01 5.485 8 7 C5.36 6.67 2.72 6.34 0 6 C0 4.02 0 2.04 0 0 Z " fill="#ECEFF1" transform="translate(32,31)"/>
<path d="M0 0 C3.63 0.66 7.26 1.32 11 2 C11 3.32 11 4.64 11 6 C7.37 6.33 3.74 6.66 0 7 C0 4.69 0 2.38 0 0 Z " fill="#FBFCFD" transform="translate(21,94)"/>
<path d="M0 0 C1.22341945 3.67025836 0.63093459 5.0825594 -0.43359375 8.76171875 C-0.75263672 9.87998047 -1.07167969 10.99824219 -1.40039062 12.15039062 C-1.74263672 13.31763672 -2.08488281 14.48488281 -2.4375 15.6875 C-2.77587891 16.86634766 -3.11425781 18.04519531 -3.46289062 19.25976562 C-4.30100527 22.17546022 -5.14699056 25.0886348 -6 28 C-6.33 28 -6.66 28 -7 28 C-6.48517081 22.147205 -5.54642808 16.6702363 -4 11 C-5.65 10.67 -7.3 10.34 -9 10 C-9 9.67 -9 9.34 -9 9 C-7.02 8.67 -5.04 8.34 -3 8 C-2.690625 6.865625 -2.38125 5.73125 -2.0625 4.5625 C-1 1 -1 1 0 0 Z " fill="#FCE7A6" transform="translate(17,10)"/>
<path d="M0 0 C1.65 0 3.3 0 5 0 C5 3.3 5 6.6 5 10 C3.35 10 1.7 10 0 10 C0 6.7 0 3.4 0 0 Z " fill="#E6E8ED" transform="translate(0,63)"/>
<path d="M0 0 C2.31 0 4.62 0 7 0 C6.67 1.65 6.34 3.3 6 5 C5.34 5 4.68 5 4 5 C3.34 6.65 2.68 8.3 2 10 C1.34 10 0.68 10 0 10 C0 6.7 0 3.4 0 0 Z " fill="#F0EEF1" transform="translate(0,21)"/>
<path d="M0 0 C2.31 0 4.62 0 7 0 C7.33 2.97 7.66 5.94 8 9 C7.01 9 6.02 9 5 9 C2.34105893 6.18465063 0.57363911 3.87206399 0 0 Z " fill="#E5E6F0" transform="translate(14,73)"/>
<path d="M0 0 C2.73361537 2.61476253 3.91265373 3.99551792 4.25 7.875 C3.97556644 11.30541954 3.40590072 12.59409928 1 15 C0.34 15 -0.32 15 -1 15 C-1.84454356 11.62182575 -2.10844919 9.32534757 -1 6 C-0.01 6 0.98 6 2 6 C1.34 4.02 0.68 2.04 0 0 Z " fill="#F2B330" transform="translate(59,48)"/>
<path d="M0 0 C1.4540625 0.0309375 1.4540625 0.0309375 2.9375 0.0625 C2.9375 2.0425 2.9375 4.0225 2.9375 6.0625 C0.6275 6.0625 -1.6825 6.0625 -4.0625 6.0625 C-4.105221 4.39638095 -4.10313832 2.72867115 -4.0625 1.0625 C-3.0625 0.0625 -3.0625 0.0625 0 0 Z " fill="#FEFEFE" transform="translate(67.0625,93.9375)"/>
<path d="M0 0 C2.31 1.65 4.62 3.3 7 5 C6.67 5.99 6.34 6.98 6 8 C4.0625 8.75 4.0625 8.75 2 9 C1.34 8.67 0.68 8.34 0 8 C0 7.34 0 6.68 0 6 C-0.66 6 -1.32 6 -2 6 C-1.34 4.02 -0.68 2.04 0 0 Z " fill="#F4F8F9" transform="translate(11,86)"/>
<path d="M0 0 C1.2065625 0.0309375 1.2065625 0.0309375 2.4375 0.0625 C1.4475 3.0325 0.4575 6.0025 -0.5625 9.0625 C-1.5525 9.0625 -2.5425 9.0625 -3.5625 9.0625 C-3.66015625 2.91015625 -3.66015625 2.91015625 -3.5625 1.0625 C-2.5625 0.0625 -2.5625 0.0625 0 0 Z " fill="#F0EFEE" transform="translate(14.5625,9.9375)"/>
<path d="M0 0 C0.66 0 1.32 0 2 0 C2 1.65 2 3.3 2 5 C2.99 5.33 3.98 5.66 5 6 C5 7.65 5 9.3 5 11 C2.03595495 8.19195732 -0.44499019 5.81684226 -2 2 C-1.34 1.34 -0.68 0.68 0 0 Z " fill="#343D6D" transform="translate(10,78)"/>
<path d="M0 0 C2 0 2 0 3.625 1.5 C5.61605945 5.12010808 5.2050035 7.89993009 5 12 C4.34 12 3.68 12 3 12 C3 12.99 3 13.98 3 15 C2.01 14.67 1.02 14.34 0 14 C0.66 13.01 1.32 12.02 2 11 C2.36703674 6.7790775 1.79885972 3.82257691 0 0 Z " fill="#FCF5D1" transform="translate(60,48)"/>
<path d="M0 0 C2.97 0.33 5.94 0.66 9 1 C9 1.66 9 2.32 9 3 C8.31292969 3.10957031 7.62585937 3.21914063 6.91796875 3.33203125 C6.01691406 3.49058594 5.11585937 3.64914063 4.1875 3.8125 C3.29417969 3.96332031 2.40085937 4.11414062 1.48046875 4.26953125 C-1.18321256 5.05395393 -2.25690322 5.88627799 -4 8 C-4.33 6.68 -4.66 5.36 -5 4 C-3.35 3.67 -1.7 3.34 0 3 C0 2.01 0 1.02 0 0 Z " fill="#F9EECC" transform="translate(49,44)"/>
<path d="M0 0 C1.08667969 0.01804688 2.17335938 0.03609375 3.29296875 0.0546875 C4.54013672 0.08949219 4.54013672 0.08949219 5.8125 0.125 C6.1425 0.785 6.4725 1.445 6.8125 2.125 C4.5025 2.125 2.1925 2.125 -0.1875 2.125 C-0.5175 2.785 -0.8475 3.445 -1.1875 4.125 C-1.5175 3.795 -1.8475 3.465 -2.1875 3.125 C-4.51567964 2.75739269 -6.8493385 2.42258419 -9.1875 2.125 C-5.66070901 -0.22619399 -4.15870515 -0.08943452 0 0 Z " fill="#4B537B" transform="translate(34.1875,36.875)"/>
<path d="M0 0 C0.99 0 1.98 0 3 0 C2.875 1.875 2.875 1.875 2 4 C-0.875 5.125 -0.875 5.125 -4 6 C-4.99 6.66 -5.98 7.32 -7 8 C-7.33 6.68 -7.66 5.36 -8 4 C-6.02 4 -4.04 4 -2 4 C-2 3.34 -2 2.68 -2 2 C-1.34 2 -0.68 2 0 2 C0 1.34 0 0.68 0 0 Z " fill="#FBFAFA" transform="translate(60,63)"/>
<path d="M0 0 C1.25541557 3.76624671 0.37061958 5.37188934 -1 9 C-1.66 9 -2.32 9 -3 9 C-3 9.66 -3 10.32 -3 11 C-2.34 11.33 -1.68 11.66 -1 12 C-2.65 12.66 -4.3 13.32 -6 14 C-4.50829734 9.0276578 -2.39542583 4.58154261 0 0 Z " fill="#ECB53F" transform="translate(20,25)"/>
<path d="M0 0 C2.97 0 5.94 0 9 0 C9 1.32 9 2.64 9 4 C4.53159589 3.50351065 3.31012244 3.31012244 0 0 Z " fill="#DCDEEA" transform="translate(23,84)"/>
<path d="M0 0 C2.475 0.99 2.475 0.99 5 2 C2.60490662 4.89932357 0.68754757 5.50168276 -3 6 C-3 3 -3 3 -1.5 1.3125 C-0.7575 0.6628125 -0.7575 0.6628125 0 0 Z " fill="#343F6A" transform="translate(46,40)"/>
<path d="M0 0 C0 0.66 0 1.32 0 2 C-0.99 2.33 -1.98 2.66 -3 3 C-4.20882096 5.00016466 -4.20882096 5.00016466 -5 7 C-6.65 6.67 -8.3 6.34 -10 6 C-9.67 5.01 -9.34 4.02 -9 3 C-7.125 2.4375 -7.125 2.4375 -5 2 C-2 0 -2 0 0 0 Z " fill="#F7E7C6" transform="translate(21,36)"/>
<path d="M0 0 C0.33 0 0.66 0 1 0 C1 3.3 1 6.6 1 10 C-0.65 10 -2.3 10 -4 10 C-2.68 6.7 -1.36 3.4 0 0 Z " fill="#D9DCE9" transform="translate(62,74)"/>
<path d="M0 0 C0 1.98 0 3.96 0 6 C-0.99 6 -1.98 6 -3 6 C-3.33 6.66 -3.66 7.32 -4 8 C-4.1875 5.125 -4.1875 5.125 -4 2 C-1 0 -1 0 0 0 Z " fill="#F7B017" transform="translate(21,15)"/>
<path d="M0 0 C1.0625 1.8125 1.0625 1.8125 2 4 C1.67 4.99 1.34 5.98 1 7 C0.34 7 -0.32 7 -1 7 C-1 7.66 -1 8.32 -1 9 C-1.66 9 -2.32 9 -3 9 C-2.30058404 5.85262818 -1.23921302 2.97411124 0 0 Z " fill="#F0E0B3" transform="translate(9,39)"/>
<path d="M0 0 C-1.75 4.875 -1.75 4.875 -4 6 C-4.33 5.34 -4.66 4.68 -5 4 C-5.99 3.67 -6.98 3.34 -8 3 C-2.25 0 -2.25 0 0 0 Z " fill="#2A3A65" transform="translate(25,39)"/>
<path d="M0 0 C0.66 1.32 1.32 2.64 2 4 C-1.75 7 -1.75 7 -4 7 C-2.92598892 4.08482708 -2.22189824 2.22189824 0 0 Z " fill="#DCE1F1" transform="translate(19,51)"/>
<path d="M0 0 C0.33 0 0.66 0 1 0 C1.1953125 1.98567708 1.390625 3.97135417 1.5859375 5.95703125 C1.92665391 8.29988142 1.92665391 8.29988142 4 11 C2.68 11 1.36 11 0 11 C0 7.37 0 3.74 0 0 Z " fill="#FCFDF9" transform="translate(42,52)"/>
<path d="M0 0 C2 3 2 3 1.625 5.6875 C1.41875 6.450625 1.2125 7.21375 1 8 C0.34 7.67 -0.32 7.34 -1 7 C-0.67 4.69 -0.34 2.38 0 0 Z " fill="#F2B31E" transform="translate(22,21)"/>
</svg>
